<svg xmlns="http://www.w3.org/2000/svg" style="width:0;height:0;position:absolute" aria-hidden="true"><path fill="#9abacf" fill-rule="evenodd" clip-rule="evenodd" d="M33.154 13.164c-2.5-4.75-7.499-8-13.199-8-8.1 0-14.8 6.64-14.8 14.82 0 8.17 6.7 14.81 14.8 14.81 5.6 0 10.5-3.08 13-7.64l.1-.17c.7-1.09 2.4-.34 1.6 1.18-2.9 5.15-8.4 8.63-14.7 8.63-9.3 0-16.8-7.53-16.8-16.81 0-9.29 7.5-16.82 16.8-16.82 6.4 0 11.899 3.51 14.799 8.69l-.1-.01c.8 1.45-.8 2.21-1.5 1.32zm-14.6 11.1c.5 0 .901.41.901.92v.09c0 .5-.4.91-.9.91h-7.1c-.3 0-.501-.1-.701-.29a.98.98 0 0 1-.299-.72v-.08c0-.27.099-.54.299-.73 1.1-1.02 4.5-4.31 4.5-4.31.6-.53.9-.99 1.1-1.38.2-.39.3-.77.3-1.16 0-.57-.2-1.01-.5-1.31-.4-.3-.999-.45-1.699-.45-1 0-1.7.23-2.3.7-.4.29-.901.3-1.301.02v.03c-.2-.2-.399-.5-.399-.82 0-.32.198-.62.399-.81.3-.21.7-.4 1-.57.8-.35 1.7-.53 2.7-.53 1.4 0 2.3.32 3.1.95.7.62 1.1 1.48 1.1 2.56 0 .67-.1 1.29-.4 1.87-.3.59-.599 1.25-1.399 2l-3.3 3.11h4.9zm5.2.07v-8.48h-1.6c-.6 0-1-.42-1-.95s.4-.95 1-.95h2.5c.3 0 .601.12.801.34.2.23.399.53.399.85v9.19h1.4c.5 0 .9.39.9.87v.11c0 .48-.4.87-.9.87h-4.9c-.5 0-.899-.39-.899-.87v-.11c0-.48.399-.87.899-.87h1.4zm10.1-5.35h-2.3c-.5 0-1 .44-1 1 0 .55.5 1 1 1h2.3v2.28c0 .55.5 1 1 1 .6 0 1-.45 1-1v-2.28h2.3c.6 0 1-.45 1-1 0-.56-.4-1-1-1h-2.3v-2.28c0-.56-.4-1-1-1-.5 0-1 .44-1 1v2.28z"/></svg>