<svg xmlns="http://www.w3.org/2000/svg" width="80" height="80" fill="none"><script/><g clip-path="url(#a)"><mask id="b" style="mask-type:luminance" maskUnits="userSpaceOnUse" x="0" y="0" width="81" height="81"><path d="M80.002.002h-80v80h80v-80z" fill="#fff"/></mask><g mask="url(#b)"><path fill-rule="evenodd" clip-rule="evenodd" d="M76.001 32.03v15.943a9.027 9.027 0 0 1-9.03 9.029h-53.94a9.027 9.027 0 0 1-9.03-9.03V32.032a9.027 9.027 0 0 1 9.03-9.03h53.94c4.99 0 9.03 4.043 9.03 9.03zm-2 0a7.031 7.031 0 0 0-7.03-7.028h-53.94a7.031 7.031 0 0 0-7.03 7.029v15.942a7.031 7.031 0 0 0 7.03 7.029h53.94c3.88 0 7.03-3.147 7.03-7.03V32.032zm-55 3.972c0 .796.32 1.559.88 2.12.56.564 1.32.88 2.12.88h4a5 5 0 0 1 5 4.998v.002a5.03 5.03 0 0 1-1.46 3.536 5.01 5.01 0 0 1-3.54 1.464h-1v3c0 .552-.45 1-1 1s-1-.448-1-1v-3h-1a5.01 5.01 0 0 1-3.54-1.464 5.03 5.03 0 0 1-1.46-3.536c0-1.357 2-1.357 2 0 0 .796.32 1.559.88 2.12.56.564 1.32.88 2.12.88h4c.8 0 1.56-.316 2.12-.88a3.01 3.01 0 0 0 .88-2.12V44a2.997 2.997 0 0 0-3-2.998h-4a5.01 5.01 0 0 1-3.54-1.464 5.03 5.03 0 0 1-1.46-3.536 5.03 5.03 0 0 1 1.46-3.536 5.01 5.01 0 0 1 3.54-1.464h1v-3c0-.552.45-1 1-1s1 .448 1 1v3h1c1.33 0 2.6.527 3.54 1.464a5.03 5.03 0 0 1 1.46 3.536c0 .943-1 1-1 1-.26 0-.5-.1-.68-.263a.934.934 0 0 1-.32-.676v-.061a3.01 3.01 0 0 0-.88-2.121 2.984 2.984 0 0 0-2.12-.88h-4c-.8 0-1.56.317-2.12.88a3.01 3.01 0 0 0-.88 2.12zm44-.002v9.004c0 1.856-.74 3.636-2.05 4.948a6.988 6.988 0 0 1-4.95 2.05c-1.86 0-3.64-.737-4.95-2.05a7.007 7.007 0 0 1-2.05-4.948V36c0-1.856.74-3.636 2.05-4.948a6.988 6.988 0 0 1 4.95-2.05c1.86 0 3.64.737 4.95 2.05A7.007 7.007 0 0 1 63.002 36zm-2 0c0-1.326-.53-2.597-1.46-3.534a5.01 5.01 0 0 0-7.08 0A5.024 5.024 0 0 0 51.002 36v9.004c0 1.326.53 2.597 1.46 3.534a5.01 5.01 0 0 0 7.08 0 5.024 5.024 0 0 0 1.46-3.534V36zm-18 14.002h4.05c.52 0 .95.428.95.955v.09c0 .527-.43.955-.95.955h-10.05c-.55 0-1-.448-1-1s.45-1 1-1h4V31.87l-4.45 2.963a.993.993 0 0 1-1.38-.277.997.997 0 0 1 .28-1.387l6-4c.3-.205.7-.224 1.02-.05.33.174.53.513.53.882v20zm17-44.401v8.802c0 3.092-2.51 5.599-5.6 5.599h-28.8c-3.09 0-5.6-2.507-5.6-5.6V5.602a5.602 5.602 0 0 1 5.6-5.6h28.8c3.09 0 5.6 2.508 5.6 5.6zm-2 0a3.598 3.598 0 0 0-3.6-3.6h-28.8c-1.99 0-3.6 1.612-3.6 3.6v8.802c0 1.988 1.61 3.599 3.6 3.599h28.8c1.99 0 3.6-1.611 3.6-3.6V5.602zm-17.15-.13 5 8c.19.309.2.698.03 1.016-.18.318-.52.515-.88.515h-10c-.36 0-.7-.197-.88-.515-.17-.318-.16-.707.03-1.015l5-8c.19-.292.51-.47.85-.47.35 0 .66.178.85.47zm-.85 2.418-3.2 5.113h6.4l-3.2-5.113zm20 66.514a5.602 5.602 0 0 1-5.6 5.599h-28.8c-3.09 0-5.6-2.507-5.6-5.6v-8.801c0-3.092 2.51-5.6 5.6-5.6h28.8c3.09 0 5.6 2.508 5.6 5.6v8.802zm-2 0V65.6c0-1.988-1.61-3.6-3.6-3.6h-28.8c-1.99 0-3.6 1.612-3.6 3.6v8.802a3.598 3.598 0 0 0 3.6 3.599h28.8c1.99 0 3.6-1.611 3.6-3.6zm-18.85.129-5-8c-.19-.308-.2-.697-.03-1.015.18-.318.52-.515.88-.515h10c.36 0 .7.197.88.515.17.318.16.707-.03 1.015l-5 8c-.19.292-.5.47-.85.47-.34 0-.66-.178-.85-.47zm.85-2.417 3.2-5.113h-6.4l3.2 5.113z" fill="url(#c)"/></g></g><defs><linearGradient id="c" x1="53.002" y1="54.002" x2="16.001" y2="10.002" gradientUnits="userSpaceOnUse"><stop stop-color="#0054FA"/><stop offset="1" stop-color="#0099FA"/></linearGradient><clipPath id="a"><path fill="#fff" d="M0 0h80v80H0z"/></clipPath></defs><script/></svg>