<svg xmlns="http://www.w3.org/2000/svg" shape-rendering="geometricPrecision" style="white-space:pre" text-rendering="geometricPrecision" viewBox="0 0 500 240"><script/><defs><linearGradient id="Gradient-0" x1="12923" x2="12923" y1="4675.18" y2="4944.04" gradientUnits="userSpaceOnUse"><stop offset="0" stop-color="#052f67"/><stop offset="1" stop-color="#2984fb"/></linearGradient><linearGradient id="Gradient-1" x1="12749.8" x2="12870.7" y1="4917.54" y2="4580.21" gradientUnits="userSpaceOnUse"><stop offset="0" stop-color="#052f67"/><stop offset="1" stop-color="#2984fb"/></linearGradient><linearGradient id="Gradient-2" x1="56.334" x2="56.334" y1="0" y2="240.008" gradientUnits="userSpaceOnUse"><stop offset="0" stop-color="#011834"/><stop offset="1" stop-color="#011834" stop-opacity="0"/></linearGradient></defs><style>@keyframes a0_t{0%{transform:translate(.028px,-.0078px)}to{transform:translate(-504.99127px,-.0078px)}}@keyframes a1_t{0%{transform:translate(.028px,-.0078px)}to{transform:translate(-504.99127px,-.0078px)}}@keyframes a2_o{0%,1.6667%,36.6667%,to{opacity:0}8.8889%{opacity:.8}28.8889%{opacity:1}}@keyframes a3_o{0%,61.6667%,92.7778%,to{opacity:0}68.8889%{opacity:.7}80%{opacity:.6}}</style><path fill="#052F67" fill-rule="evenodd" stroke-linejoin="round" stroke-miterlimit="2" d="M274.12 113.249v-3.094h1.64v3.094h2.979c.248 0 .496.09.645.253a.926.926 0 0 1 .249.616v54.555a.91.91 0 0 1-.249.61c-.149.164-.397.259-.645.259h-2.98v12.115h-1.638v-12.115h-3.029c-.248 0-.447-.095-.646-.258a.913.913 0 0 1-.248-.611v-54.555c0-.234.1-.452.248-.616.2-.164.398-.253.646-.253h3.029zm-106.21 24.027h3.029c.248 0 .447.095.645.259a.923.923 0 0 1 .249.61v30.81c0 .234-.1.453-.249.617-.198.163-.397.253-.645.253h-3.03v5.283h-1.638v-5.283h-3.029a.852.852 0 0 1-.596-.253.926.926 0 0 1-.248-.616v-30.81c0-.23.1-.448.248-.611a.858.858 0 0 1 .596-.259h3.03v-11.822h1.638v11.822zm-19.614-34.892v-7.711h1.639v7.711h3.029c.496 0 .844.388.844.87v47.697c0 .482-.348.87-.844.87h-3.03v11.176h-1.638V151.82h-3.029c-.496 0-.844-.387-.844-.869v-47.698c0-.481.348-.869.844-.869h3.03zm91.464 16.798h3.029c.199 0 .447.095.596.254a.936.936 0 0 1 .248.615v26.456a.94.94 0 0 1-.248.616.874.874 0 0 1-.596.253h-3.029v11.495h-1.639v-11.495h-3.029a.789.789 0 0 1-.595-.253c-.199-.164-.249-.387-.249-.616v-26.456c0-.228.05-.452.249-.615a.789.789 0 0 1 .595-.254h3.03v-5.933h1.638v5.933zm-53.826-5.735h2.98c.248 0 .447.09.645.254a.926.926 0 0 1 .248.615v19.485a.934.934 0 0 1-.248.615c-.198.16-.397.254-.645.254h-2.98v11.753h-1.638V134.67h-3.03c-.247 0-.446-.095-.645-.254a.936.936 0 0 1-.248-.615v-19.485c0-.233.1-.452.248-.615.199-.164.398-.254.646-.254h3.029v-5.084h1.638v5.084zm70.162.77v-4.062h1.639v4.062h3.029c.496 0 .894.387.894.869v17.945a.879.879 0 0 1-.894.869h-3.03v7.493h-1.638V133.9h-2.979a.879.879 0 0 1-.894-.869v-17.945a.88.88 0 0 1 .894-.87h2.98zm36.1-64.486v-2.94h1.638v2.94h3.029c.198 0 .447.09.596.253a.926.926 0 0 1 .248.616v71.184a.93.93 0 0 1-.248.616.852.852 0 0 1-.596.253h-3.03v13.814h-1.638v-13.814h-3.029a.772.772 0 0 1-.596-.253.785.785 0 0 1-.298-.616V50.6c0-.234.1-.452.298-.616a.772.772 0 0 1 .596-.253h3.03zm-89.925 53.413V92.18h1.638v10.964h2.98c.248 0 .496.094.645.253a.936.936 0 0 1 .248.616v6.554a.935.935 0 0 1-.248.616c-.149.159-.397.253-.645.253h-2.98v24.683h-1.638v-24.683h-3.03c-.247 0-.446-.094-.645-.253a.936.936 0 0 1-.248-.616v-6.554c0-.228.1-.452.248-.616.199-.159.398-.253.646-.253h3.029zm18.024-3.5v-3.586h1.639v3.585h3.029a.88.88 0 0 1 .894.87v26.654a.879.879 0 0 1-.894.869h-3.029v5.243h-1.639v-5.243h-3.029c-.446 0-.844-.388-.844-.87v-26.654c0-.481.398-.869.844-.869h3.03zm161.825-3.938h-3.03a.858.858 0 0 1-.595-.258.913.913 0 0 1-.248-.611V71.25c0-.233.099-.452.248-.616a.852.852 0 0 1 .596-.253h7.696c.248 0 .447.09.646.253a.926.926 0 0 1 .248.616v23.586c0 .228-.1.452-.248.61-.199.164-.398.259-.646.259h-3.029v20.219h-1.638v-20.22zm-70.311-84.72h3.029c.248 0 .447.089.645.253a.936.936 0 0 1 .248.616v91.22a.912.912 0 0 1-.248.61c-.198.164-.397.258-.645.258h-3.03v11.982h-1.638v-11.982h-3.029a.858.858 0 0 1-.596-.258.913.913 0 0 1-.248-.61v-91.22c0-.229.1-.452.248-.616a.852.852 0 0 1 .596-.253h3.03V-.008h1.638v10.994zm106.26 25.398V24.819h1.64v11.565h3.028c.199 0 .447.094.596.253a.936.936 0 0 1 .248.616v57.32c0 .23-.1.453-.248.611a.858.858 0 0 1-.596.259h-3.029v12.135h-1.639V95.443h-3.028a.775.775 0 0 1-.596-.259.775.775 0 0 1-.298-.61V37.253c0-.229.1-.452.298-.616a.789.789 0 0 1 .596-.253h3.028zm-71.9 58.91h-3.028a.772.772 0 0 1-.596-.254.785.785 0 0 1-.298-.615V54.319c0-.233.1-.452.298-.616a.772.772 0 0 1 .596-.253h7.696c.199 0 .447.09.596.253a.926.926 0 0 1 .248.616v40.106a.922.922 0 0 1-.248.615.852.852 0 0 1-.596.254h-3.029v12.076h-1.638V95.294zm-18.074-22.975h-3.029a.852.852 0 0 1-.595-.254.926.926 0 0 1-.249-.615V21.974c0-.228.1-.452.249-.616a.874.874 0 0 1 .595-.253h7.697c.248 0 .447.095.596.253.198.164.248.388.248.616V71.45c0 .233-.05.452-.248.615a.772.772 0 0 1-.596.254h-3.029v10.983h-1.639V72.32zm73.638-1.937h2.98c.496 0 .893.387.893.87v8.991a.882.882 0 0 1-.894.87h-2.979v12.135h-1.638V81.112h-3.03a.882.882 0 0 1-.893-.869v-8.992c0-.482.397-.869.894-.869h3.029V67.75h1.638v2.632zm-37.638-8.5V50.753h1.639V61.88h3.029c.198 0 .446.09.595.254a.936.936 0 0 1 .249.615v5.86c0 .228-.1.451-.249.615a.874.874 0 0 1-.595.253h-3.03V81.57h-1.638V69.48h-3.029a.789.789 0 0 1-.596-.254c-.198-.164-.248-.387-.248-.616v-5.86c0-.228.05-.452.248-.615a.772.772 0 0 1 .596-.254h3.029zm89.924-17.265V33.916h1.639v10.7h3.029c.248 0 .447.09.596.254.198.164.248.387.248.615v6.495c0 .229-.05.452-.248.611a.775.775 0 0 1-.596.258h-3.029v11.917h-1.639V52.85h-3.029a.858.858 0 0 1-.595-.258c-.199-.159-.249-.382-.249-.61v-6.496c0-.228.05-.451.249-.615a.852.852 0 0 1 .595-.253h3.03zm-16.237 0h3.03a.77.77 0 0 1 .595.253c.199.164.248.387.248.615v14.723c0 .233-.05.452-.248.616a.772.772 0 0 1-.596.253h-3.029v3.69h-1.638v-3.69h-3.03a.852.852 0 0 1-.595-.253.926.926 0 0 1-.248-.616V45.485c0-.228.099-.451.248-.615a.852.852 0 0 1 .596-.253h3.029V33.916h1.638v10.7zm36.05-7.14h3.028c.447 0 .845.387.845.868v30.23c0 .481-.398.869-.845.869h-3.028v7.408h-1.639v-7.408h-3.029a.879.879 0 0 1-.894-.87V38.346c0-.481.397-.869.894-.869h3.029v-10.7h1.639v10.7zm16.237 15.129V48.97h1.638v3.635h3.03c.446 0 .843.387.843.869v59.476c0 .481-.397.869-.844.869h-3.029v3.237h-1.638v-3.237h-3.03a.879.879 0 0 1-.893-.87V53.476a.88.88 0 0 1 .894-.87h3.029zM129.725 70.938V67.85h1.64v3.088h3.028c.199 0 .447.095.596.258.198.164.248.383.248.611v54.555c0 .234-.05.452-.248.616a.852.852 0 0 1-.596.253h-3.029v12.116h-1.639v-12.116h-3.028a.772.772 0 0 1-.596-.253c-.199-.164-.249-.382-.249-.616V71.807c0-.228.05-.447.249-.61a.775.775 0 0 1 .596-.259h3.028zM23.564 94.971h3.029c.199 0 .447.09.596.253a.936.936 0 0 1 .248.616v30.81a.94.94 0 0 1-.248.616.852.852 0 0 1-.596.253h-3.029v5.279h-1.639v-5.279h-3.029c-.248 0-.446-.09-.645-.253a.936.936 0 0 1-.248-.616V95.84c0-.229.099-.452.248-.616.199-.164.397-.253.645-.253h3.03V83.143h1.638v11.828zM3.901 60.079v-7.716h1.638v7.716h3.03c.496 0 .893.387.893.869v47.698a.882.882 0 0 1-.894.869H5.54v11.177H3.901v-11.177H.92a.882.882 0 0 1-.893-.87V60.949a.88.88 0 0 1 .894-.87H3.9zm91.463 16.798h3.03c.248 0 .446.09.645.253a.926.926 0 0 1 .248.616v26.456c0 .228-.1.452-.248.61-.199.164-.397.259-.646.259h-3.029v11.495h-1.638V105.07h-3.029a.858.858 0 0 1-.596-.259.913.913 0 0 1-.248-.61V77.746c0-.234.1-.452.248-.616a.852.852 0 0 1 .596-.253h3.029v-5.939h1.638v5.939zm-53.825-5.74h3.029c.198 0 .447.094.596.258a.913.913 0 0 1 .248.61v19.49c0 .229-.1.447-.248.61a.858.858 0 0 1-.596.26h-3.03v11.747H39.9V92.364h-3.029a.775.775 0 0 1-.595-.258c-.2-.164-.249-.382-.249-.61v-19.49c0-.229.05-.452.249-.61a.775.775 0 0 1 .595-.26h3.03v-5.079h1.638v5.08zm70.211.77V67.85h1.64v4.057h3.028c.447 0 .844.392.844.868v17.95c0 .477-.397.87-.844.87h-3.029v7.492h-1.639v-7.493h-3.028a.882.882 0 0 1-.894-.869v-17.95c0-.476.397-.868.894-.868h3.028zM57.875 46.93V35.962h1.639V46.93h3.029c.198 0 .447.09.596.254a.926.926 0 0 1 .248.615v20.463c0 .228-.1.452-.248.61a.858.858 0 0 1-.596.259h-3.03v24.683h-1.638V69.131h-3.029a.775.775 0 0 1-.595-.258c-.2-.16-.249-.383-.249-.611V47.799c0-.233.05-.452.249-.615a.772.772 0 0 1 .595-.254h3.03zM75.95 30.37V15.009h1.638V30.37h2.98c.496 0 .893.387.893.869V84.86a.879.879 0 0 1-.894.87h-2.979v5.243H75.95V85.73h-3.03a.879.879 0 0 1-.893-.869V31.24a.88.88 0 0 1 .894-.87h3.029zm702.61 82.879v-3.094h1.639v3.094h2.979c.248 0 .496.09.645.253a.926.926 0 0 1 .249.616v54.555a.91.91 0 0 1-.249.61c-.149.164-.397.259-.645.259h-2.98v12.115h-1.638v-12.115h-3.029c-.248 0-.447-.095-.646-.258a.913.913 0 0 1-.248-.611v-54.555c0-.234.1-.452.248-.616.2-.164.398-.253.646-.253h3.029zm-106.211 24.027h3.029c.248 0 .447.095.645.259a.923.923 0 0 1 .249.61v30.81c0 .234-.1.453-.249.617-.198.163-.397.253-.645.253h-3.03v5.283h-1.638v-5.283h-3.029a.852.852 0 0 1-.596-.253.926.926 0 0 1-.248-.616v-30.81c0-.23.1-.448.248-.611a.858.858 0 0 1 .596-.259h3.03v-11.822h1.638v11.822zm-19.614-34.892v-7.711h1.639v7.711h3.029c.496 0 .844.388.844.87v47.697c0 .482-.348.87-.844.87h-3.03v11.176h-1.638V151.82h-3.029c-.496 0-.844-.387-.844-.869v-47.698c0-.481.348-.869.844-.869h3.03zm91.464 16.798h3.029c.199 0 .447.095.596.254a.936.936 0 0 1 .248.615v26.456a.94.94 0 0 1-.248.616.874.874 0 0 1-.596.253h-3.029v11.495h-1.639v-11.495h-3.029a.789.789 0 0 1-.595-.253c-.199-.164-.249-.387-.249-.616v-26.456c0-.228.05-.452.249-.615a.789.789 0 0 1 .595-.254h3.03v-5.933h1.638v5.933zm-53.826-5.735h2.98c.248 0 .447.09.645.254a.926.926 0 0 1 .248.615v19.485a.934.934 0 0 1-.248.615c-.198.16-.397.254-.645.254h-2.98v11.753h-1.638V134.67h-3.03c-.247 0-.446-.095-.645-.254a.936.936 0 0 1-.248-.615v-19.485c0-.233.1-.452.248-.615.199-.164.398-.254.646-.254h3.029v-5.084h1.638v5.084zm70.162.77v-4.062h1.639v4.062h3.029c.496 0 .894.387.894.869v17.945a.879.879 0 0 1-.894.869h-3.03v7.493h-1.638V133.9h-2.979a.879.879 0 0 1-.894-.869v-17.945a.88.88 0 0 1 .894-.87h2.98zm36.1-64.486v-2.94h1.638v2.94h3.029c.198 0 .447.09.596.253a.926.926 0 0 1 .248.616v71.184a.93.93 0 0 1-.248.616.852.852 0 0 1-.596.253h-3.03v13.814h-1.638v-13.814h-3.029a.772.772 0 0 1-.596-.253.785.785 0 0 1-.298-.616V50.6c0-.234.1-.452.298-.616a.772.772 0 0 1 .596-.253h3.03zm-89.925 53.413V92.18h1.638v10.964h2.98c.248 0 .496.094.645.253a.936.936 0 0 1 .248.616v6.554a.935.935 0 0 1-.248.616c-.149.159-.397.253-.645.253h-2.98v24.683h-1.638v-24.683h-3.03c-.247 0-.446-.094-.645-.253a.936.936 0 0 1-.248-.616v-6.554c0-.228.1-.452.248-.616.199-.159.398-.253.646-.253h3.029zm18.024-3.5v-3.586h1.639v3.585h3.029a.88.88 0 0 1 .894.87v26.654a.879.879 0 0 1-.894.869h-3.029v5.243h-1.639v-5.243h-3.029c-.446 0-.844-.388-.844-.87v-26.654c0-.481.398-.869.844-.869h3.03zm161.825-3.938h-3.03a.858.858 0 0 1-.595-.258.913.913 0 0 1-.248-.611V71.25c0-.233.099-.452.248-.616a.852.852 0 0 1 .596-.253h7.696c.248 0 .447.09.646.253a.926.926 0 0 1 .248.616v23.586c0 .228-.1.452-.248.61-.199.164-.398.259-.646.259h-3.029v20.219h-1.638v-20.22zm-70.311-84.72h3.029c.248 0 .447.089.645.253a.936.936 0 0 1 .248.616v91.22a.912.912 0 0 1-.248.61c-.198.164-.397.258-.645.258h-3.03v11.982h-1.638v-11.982h-3.029a.858.858 0 0 1-.596-.258.913.913 0 0 1-.248-.61v-91.22c0-.229.1-.452.248-.616a.852.852 0 0 1 .596-.253h3.03V-.008h1.638v10.994zm106.26 25.398V24.819h1.64v11.565h3.028c.199 0 .447.094.596.253a.936.936 0 0 1 .248.616v57.32c0 .23-.1.453-.248.611a.858.858 0 0 1-.596.259h-3.029v12.135h-1.639V95.443h-3.028a.775.775 0 0 1-.596-.259.775.775 0 0 1-.298-.61V37.253c0-.229.1-.452.298-.616a.789.789 0 0 1 .596-.253h3.028zm-71.9 58.91h-3.028a.772.772 0 0 1-.596-.254.785.785 0 0 1-.298-.615V54.319c0-.233.1-.452.298-.616a.772.772 0 0 1 .596-.253h7.696c.199 0 .447.09.596.253a.926.926 0 0 1 .248.616v40.106a.922.922 0 0 1-.248.615.852.852 0 0 1-.596.254h-3.029v12.076h-1.638V95.294zm-18.074-22.975h-3.029a.852.852 0 0 1-.595-.254.926.926 0 0 1-.249-.615V21.974c0-.228.1-.452.249-.616a.874.874 0 0 1 .595-.253h7.697c.248 0 .447.095.596.253.198.164.248.388.248.616V71.45c0 .233-.05.452-.248.615a.772.772 0 0 1-.596.254h-3.029v10.983h-1.639V72.32zm73.638-1.937h2.98c.496 0 .893.387.893.87v8.991a.882.882 0 0 1-.894.87h-2.979v12.135h-1.638V81.112h-3.03a.882.882 0 0 1-.893-.869v-8.992c0-.482.397-.869.894-.869h3.029V67.75h1.638v2.632zm-37.638-8.5V50.753h1.639V61.88h3.029c.198 0 .446.09.595.254a.936.936 0 0 1 .249.615v5.86c0 .228-.1.451-.249.615a.874.874 0 0 1-.595.253h-3.03V81.57h-1.638V69.48h-3.029a.789.789 0 0 1-.596-.254c-.198-.164-.248-.387-.248-.616v-5.86c0-.228.05-.452.248-.615a.772.772 0 0 1 .596-.254h3.029zm89.924-17.265V33.916h1.639v10.7h3.029c.248 0 .447.09.596.254.198.164.248.387.248.615v6.495c0 .229-.05.452-.248.611a.775.775 0 0 1-.596.258h-3.029v11.917h-1.639V52.85h-3.029a.858.858 0 0 1-.595-.258c-.199-.159-.249-.382-.249-.61v-6.496c0-.228.05-.451.249-.615a.852.852 0 0 1 .595-.253h3.03zm-16.237 0h3.03a.77.77 0 0 1 .595.253c.199.164.248.387.248.615v14.723c0 .233-.05.452-.248.616a.772.772 0 0 1-.596.253h-3.029v3.69h-1.638v-3.69h-3.03a.852.852 0 0 1-.595-.253.926.926 0 0 1-.248-.616V45.485c0-.228.099-.451.248-.615a.852.852 0 0 1 .596-.253h3.029V33.916h1.638v10.7zm36.05-7.14h3.028c.447 0 .845.387.845.868v30.23c0 .481-.398.869-.845.869h-3.028v7.408h-1.639v-7.408h-3.029a.879.879 0 0 1-.894-.87V38.346c0-.481.397-.869.894-.869h3.029v-10.7h1.639v10.7zm16.237 15.129V48.97h1.638v3.635h3.03c.446 0 .843.387.843.869v59.476c0 .481-.397.869-.844.869h-3.029v3.237h-1.638v-3.237h-3.03a.879.879 0 0 1-.893-.87V53.476a.88.88 0 0 1 .894-.87h3.029zM634.164 70.938V67.85h1.64v3.088h3.028c.199 0 .447.095.596.258.198.164.248.383.248.611v54.555c0 .234-.05.452-.248.616a.852.852 0 0 1-.596.253h-3.029v12.116h-1.639v-12.116h-3.028a.772.772 0 0 1-.596-.253c-.199-.164-.249-.382-.249-.616V71.807c0-.228.05-.447.249-.61a.775.775 0 0 1 .596-.259h3.028zM528.003 94.971h3.029c.199 0 .447.09.596.253a.936.936 0 0 1 .248.616v30.81a.94.94 0 0 1-.248.616.852.852 0 0 1-.596.253h-3.029v5.279h-1.639v-5.279h-3.029c-.248 0-.446-.09-.645-.253a.936.936 0 0 1-.248-.616V95.84c0-.229.099-.452.248-.616.199-.164.397-.253.645-.253h3.03V83.143h1.638v11.828zM508.34 60.079v-7.716h1.638v7.716h3.03c.496 0 .893.387.893.869v47.698a.882.882 0 0 1-.894.869h-3.029v11.177h-1.638v-11.177h-2.98a.882.882 0 0 1-.893-.87V60.949a.88.88 0 0 1 .894-.87h2.979zm91.463 16.798h3.03c.248 0 .446.09.645.253a.926.926 0 0 1 .248.616v26.456c0 .228-.1.452-.248.61-.199.164-.397.259-.646.259h-3.029v11.495h-1.638V105.07h-3.029a.858.858 0 0 1-.596-.259.913.913 0 0 1-.248-.61V77.746c0-.234.1-.452.248-.616a.852.852 0 0 1 .596-.253h3.029v-5.939h1.638v5.939zm-53.825-5.74h3.029c.198 0 .447.094.596.258a.913.913 0 0 1 .248.61v19.49c0 .229-.1.447-.248.61a.858.858 0 0 1-.596.26h-3.03v11.747h-1.638V92.364h-3.029a.775.775 0 0 1-.595-.258c-.2-.164-.249-.382-.249-.61v-19.49c0-.229.05-.452.249-.61a.775.775 0 0 1 .595-.26h3.03v-5.079h1.638v5.08zm70.211.77V67.85h1.64v4.057h3.028c.447 0 .844.392.844.868v17.95c0 .477-.397.87-.844.87h-3.029v7.492h-1.639v-7.493h-3.028a.882.882 0 0 1-.894-.869v-17.95c0-.476.397-.868.894-.868h3.028zM562.314 46.93V35.962h1.639V46.93h3.029c.198 0 .447.09.596.254a.926.926 0 0 1 .248.615v20.463c0 .228-.1.452-.248.61a.858.858 0 0 1-.596.259h-3.03v24.683h-1.638V69.131h-3.029a.775.775 0 0 1-.595-.258c-.2-.16-.249-.383-.249-.611V47.799c0-.233.05-.452.249-.615a.772.772 0 0 1 .595-.254h3.03zm18.075-16.56V15.009h1.638V30.37h2.98c.496 0 .893.387.893.869V84.86a.879.879 0 0 1-.894.87h-2.979v5.243h-1.638V85.73h-3.03a.879.879 0 0 1-.893-.869V31.24a.88.88 0 0 1 .894-.87h3.029z" clip-rule="evenodd" style="animation:18s linear infinite both a0_t"/><path fill="url(#Gradient-2)" d="M0 0h240v250H0z" transform="rotate(-90 120 120)"/><path fill="url(#Gradient-2)" d="M0 0h240v250H0z" transform="rotate(90 250 250)"/><script/></svg>