<svg xmlns="http://www.w3.org/2000/svg" width="80" height="80" fill="none"><script/><g clip-path="url(#a)"><path fill-rule="evenodd" clip-rule="evenodd" d="M55.491 34.002h16.13c3.52 0 6.38 2.859 6.38 6.385v31.23a6.385 6.385 0 0 1-6.38 6.385H8.391A6.387 6.387 0 0 1 2 71.617v-31.23a6.387 6.387 0 0 1 6.39-6.385h16.12a18.907 18.907 0 0 1-3.51-11c0-10.486 8.51-19 19-19s19 8.514 19 19c0 4.098-1.3 7.895-3.51 11zm-28.45 0h11.96v-2h-1a5.01 5.01 0 0 1-3.54-1.464 5.03 5.03 0 0 1-1.46-3.536c0-1.357 2-1.357 2 0 0 .796.32 1.559.88 2.12.56.564 1.32.88 2.12.88h4c.8 0 1.56-.316 2.12-.88a3.01 3.01 0 0 0 .88-2.12V27a2.997 2.997 0 0 0-3-2.998h-4a5.01 5.01 0 0 1-3.54-1.464 5.03 5.03 0 0 1-1.46-3.536 5.03 5.03 0 0 1 1.46-3.536 5.01 5.01 0 0 1 3.54-1.464h1v-3c0-.552.45-1 1-1s1 .448 1 1v3h1c1.33 0 2.6.527 3.54 1.464a5.03 5.03 0 0 1 1.46 3.536c0 .943-1 1-1 1-.26 0-.5-.1-.68-.263a.934.934 0 0 1-.32-.676v-.061a3.01 3.01 0 0 0-.88-2.121 2.984 2.984 0 0 0-2.12-.88h-4c-.8 0-1.56.317-2.12.88A3.01 3.01 0 0 0 35 19c0 .797.32 1.56.88 2.122.56.563 1.32.879 2.12.879h4a5 5 0 0 1 5 4.998v.002a5.03 5.03 0 0 1-1.46 3.536 5.01 5.01 0 0 1-3.54 1.464h-1v2h11.96a16.933 16.933 0 0 0 4.04-11c0-9.383-7.62-17-17-17-9.38 0-17 7.617-17 17 0 4.193 1.52 8.034 4.04 11zm48.96 6.385a4.382 4.382 0 0 0-4.38-4.385H8.391A4.384 4.384 0 0 0 4 40.387v31.23a4.384 4.384 0 0 0 4.39 4.385h63.23c2.42 0 4.38-1.963 4.38-4.385v-31.23zm-19.5 15.615c3.59 0 6.5 2.913 6.5 6.5s-2.91 6.5-6.5 6.5-6.5-2.913-6.5-6.5 2.91-6.5 6.5-6.5zm0 2c-2.48 0-4.5 2.016-4.5 4.5s2.02 4.5 4.5 4.5 4.5-2.016 4.5-4.5-2.02-4.5-4.5-4.5zm-17-15c3.59 0 6.5 2.913 6.5 6.5s-2.91 6.5-6.5 6.5-6.5-2.913-6.5-6.5 2.91-6.5 6.5-6.5zm0 2c-2.48 0-4.5 2.016-4.5 4.5s2.02 4.5 4.5 4.5 4.5-2.016 4.5-4.5-2.02-4.5-4.5-4.5zm-17.5 12h-5c-.55 0-1-.448-1-1s.45-1 1-1h5v-5c0-.552.45-1 1-1s1 .448 1 1v5h5c.55 0 1 .448 1 1s-.45 1-1 1h-5v5c0 .552-.45 1-1 1s-1-.448-1-1v-5zm14.71 11.707c-.39.39-1.03.39-1.42 0a1 1 0 0 1 0-1.414l23-23c.39-.39 1.03-.39 1.42 0a1 1 0 0 1 0 1.414l-23 23z" fill="url(#b)"/></g><defs><linearGradient id="b" x1="70.001" y1="60.002" x2="23.162" y2="20.002" gradientUnits="userSpaceOnUse"><stop stop-color="#0054FA"/><stop offset="1" stop-color="#0099FA"/></linearGradient><clipPath id="a"><path fill="#fff" d="M0 0h80v80H0z"/></clipPath></defs><script/></svg>