<svg xmlns="http://www.w3.org/2000/svg" width="80" height="80" fill="none"><script/><g clip-path="url(#a)"><mask id="b" style="mask-type:luminance" maskUnits="userSpaceOnUse" x="0" y="0" width="81" height="81"><path d="M80.002.002h-80v80h80v-80z" fill="#fff"/></mask><g mask="url(#b)"><path fill-rule="evenodd" clip-rule="evenodd" d="M4.001 50.002h-.54a3.458 3.458 0 0 1-3.46-3.456V14.458a3.458 3.458 0 0 1 3.46-3.456h.54v-5c0-.552.45-1 1-1s1 .448 1 1v5h.54c1.91 0 3.46 1.547 3.46 3.456v32.088a3.458 3.458 0 0 1-3.46 3.456h-.54v13c0 .552-.45 1-1 1s-1-.448-1-1v-13zm2.54-37h-3.08c-.81 0-1.46.652-1.46 1.456v32.088c0 .804.65 1.456 1.46 1.456h3.08c.81 0 1.46-.652 1.46-1.456V14.458c0-.804-.65-1.456-1.46-1.456zm9.46 49h-.54a3.458 3.458 0 0 1-3.46-3.456v-8.088a3.458 3.458 0 0 1 3.46-3.456h.54v-16c0-.552.45-1 1-1s1 .448 1 1v16h.54c1.91 0 3.46 1.547 3.46 3.456v8.088a3.458 3.458 0 0 1-3.46 3.456h-.54v3c0 .552-.45 1-1 1s-1-.448-1-1v-3zm2.54-13h-3.08c-.81 0-1.46.652-1.46 1.456v8.088c0 .804.65 1.456 1.46 1.456h3.08c.81 0 1.46-.652 1.46-1.456v-8.088c0-.804-.65-1.456-1.46-1.456zm21.46-8h-.54c-.92 0-1.8-.364-2.45-1.012a3.446 3.446 0 0 1-1.01-2.444v-4.088c0-.917.36-1.796 1.01-2.444a3.468 3.468 0 0 1 2.45-1.012h.54v-11c0-.552.45-1 1-1s1 .448 1 1v11h.54c.92 0 1.8.364 2.45 1.012a3.446 3.446 0 0 1 1.01 2.444v4.088c0 .917-.36 1.796-1.01 2.444a3.468 3.468 0 0 1-2.45 1.012h-.54v14.5c0 .552-.45 1-1 1s-1-.448-1-1v-14.5zm2.54-9h-3.08c-.39 0-.76.153-1.03.426-.28.274-.43.644-.43 1.03v4.088c0 .386.15.756.43 1.03.27.273.64.426 1.03.426h3.08c.39 0 .76-.153 1.03-.426.28-.274.43-.644.43-1.03v-4.088c0-.386-.15-.756-.43-1.03a1.445 1.445 0 0 0-1.03-.426zm-14.54 25.5h-.54c-.92 0-1.8-.364-2.45-1.012a3.446 3.446 0 0 1-1.01-2.444V34.458c0-.917.36-1.796 1.01-2.444a3.468 3.468 0 0 1 2.45-1.012h.54v-10.5c0-.552.45-1 1-1s1 .448 1 1v10.5h.54c.92 0 1.8.364 2.45 1.012a3.446 3.446 0 0 1 1.01 2.444v19.588c0 .917-.36 1.796-1.01 2.444a3.468 3.468 0 0 1-2.45 1.012h-.54v10c0 .552-.45 1-1 1s-1-.448-1-1v-10zm2.54-24.5h-3.08c-.39 0-.76.153-1.03.426-.28.274-.43.644-.43 1.03v19.588c0 .386.15.756.43 1.03.27.273.64.426 1.03.426h3.08c.39 0 .76-.153 1.03-.426.28-.274.43-.644.43-1.03V34.458c0-.386-.15-.756-.43-1.03a1.445 1.445 0 0 0-1.03-.426zm49.46-19.175v17.35c0 4.322-3.5 7.825-7.83 7.825h-16.34a7.824 7.824 0 0 1-7.83-7.825v-17.35c0-4.322 3.5-7.825 7.83-7.825h16.34c4.33 0 7.83 3.503 7.83 7.825zm-2 0a5.827 5.827 0 0 0-5.83-5.825h-16.34a5.827 5.827 0 0 0-5.83 5.825v17.35a5.827 5.827 0 0 0 5.83 5.825h16.34c3.22 0 5.83-2.608 5.83-5.825v-17.35zm-7 3.589-14.29 14.293c-.39.39-1.03.39-1.42 0a1 1 0 0 1 0-1.414l14.3-14.293h-9.59c-.55 0-1-.448-1-1s.45-1 1-1h12a1 1 0 0 1 .71.293c.18.188.29.44.29.707v12c0 .552-.45 1-1 1s-1-.448-1-1v-9.586zm9 48.76c0 4.323-3.5 7.826-7.83 7.826h-16.34a7.824 7.824 0 0 1-7.83-7.825v-17.35c0-4.322 3.5-7.825 7.83-7.825h16.34c4.33 0 7.83 3.503 7.83 7.825v17.35zm-2 0v-17.35a5.827 5.827 0 0 0-5.83-5.824h-16.34a5.827 5.827 0 0 0-5.83 5.825v17.35a5.827 5.827 0 0 0 5.83 5.825h16.34c3.22 0 5.83-2.608 5.83-5.825zm-8.41-2.174-14.3-14.293a1 1 0 1 1 1.42-1.414l14.29 14.293v-9.586c0-.552.45-1 1-1s1 .448 1 1v12c0 .266-.11.519-.29.707a1 1 0 0 1-.71.293h-12c-.55 0-1-.448-1-1s.45-1 1-1h9.59z" fill="url(#c)"/></g></g><defs><linearGradient id="c" x1="20.001" y1="17.263" x2="60.001" y2="57.891" gradientUnits="userSpaceOnUse"><stop stop-color="#0099FA"/><stop offset="1" stop-color="#0054FA"/></linearGradient><clipPath id="a"><path fill="#fff" d="M0 0h80v80H0z"/></clipPath></defs><script/></svg>