<svg xmlns="http://www.w3.org/2000/svg" width="80" height="80" fill="none"><script/><g clip-path="url(#a)"><path fill-rule="evenodd" clip-rule="evenodd" d="M36.012 36.487a18.927 18.927 0 0 1-11.01 3.515c-10.49 0-19-8.514-19-19s8.51-19 19-19c10.32 0 18.74 8.252 18.99 18.515a18.927 18.927 0 0 1 11.01-3.515c10.49 0 19 8.514 19 19s-8.51 19-19 19c-.92 0-1.83-.066-2.72-.194.47 1.65.72 3.394.72 5.194 0 10.486-8.51 19-19 19s-19-8.514-19-19 8.51-19 19-19c.92 0 1.83.066 2.72.194-.43-1.503-.67-3.08-.71-4.71zm5.95-14.298c.03-.392.04-.788.04-1.187 0-9.383-7.62-17-17-17-9.38 0-17 7.617-17 17s7.62 17 17 17c4.25 0 8.14-1.563 11.12-4.145.51-4.578 2.66-8.665 5.84-11.668zm9.56 30.456c1.12.234 2.29.357 3.48.357 9.38 0 17-7.617 17-17s-7.62-17-17-17c-9.38 0-17 7.617-17 17 0 1.983.34 3.887.97 5.656 5.67 1.536 10.3 5.64 12.55 10.987zm-17.52-9.643c-9.38 0-17 7.617-17 17s7.62 17 17 17c9.38 0 17-7.617 17-17s-7.62-17-17-17zm-1 16.376-6.75-7.717a1 1 0 1 1 1.5-1.318l6.25 7.14 6.25-7.14a1 1 0 1 1 1.5 1.318l-6.75 7.717v.624h4c.55 0 1 .448 1 1s-.45 1-1 1h-4v2h4c.55 0 1 .448 1 1s-.45 1-1 1h-4v6c0 .552-.45 1-1 1s-1-.448-1-1v-6h-4c-.55 0-1-.448-1-1s.45-1 1-1h4v-2h-4c-.55 0-1-.448-1-1s.45-1 1-1h4v-.624zm-13-42.376c0 .796.32 1.559.88 2.12.56.564 1.32.88 2.12.88h4a5 5 0 0 1 5 4.998v.002a5.03 5.03 0 0 1-1.46 3.536 5.01 5.01 0 0 1-3.54 1.464h-1v3c0 .552-.45 1-1 1s-1-.448-1-1v-3h-1a5.01 5.01 0 0 1-3.54-1.464 5.03 5.03 0 0 1-1.46-3.536c0-1.357 2-1.357 2 0 0 .796.32 1.559.88 2.12.56.564 1.32.88 2.12.88h4c.8 0 1.56-.316 2.12-.88a3.01 3.01 0 0 0 .88-2.12V25a2.997 2.997 0 0 0-3-2.998h-4a5.01 5.01 0 0 1-3.54-1.464 5.03 5.03 0 0 1-1.46-3.536 5.03 5.03 0 0 1 1.46-3.536 5.01 5.01 0 0 1 3.54-1.464h1v-3c0-.552.45-1 1-1s1 .448 1 1v3h1c1.33 0 2.6.527 3.54 1.464a5.03 5.03 0 0 1 1.46 3.536c0 .943-1 1-1 1-.26 0-.5-.1-.67-.263a.904.904 0 0 1-.33-.676v-.061a3.01 3.01 0 0 0-.88-2.121 2.984 2.984 0 0 0-2.12-.88h-4c-.8 0-1.56.317-2.12.88a3.01 3.01 0 0 0-.88 2.12zm29 12h-1c-.55 0-1-.448-1-1s.45-1 1-1h4v-2c0-.552.45-1 1-1s1 .448 1 1v2h2v-2c0-.552.45-1 1-1s1 .448 1 1v2a5.026 5.026 0 0 1 3.24 8.773c.42.239.81.535 1.16.882a5.498 5.498 0 0 1 1.6 3.87v.003c0 1.45-.58 2.843-1.6 3.869a5.484 5.484 0 0 1-3.87 1.603h-.53v2c0 .552-.45 1-1 1s-1-.448-1-1v-2h-2v2c0 .552-.45 1-1 1s-1-.448-1-1v-2h-4c-.55 0-1-.448-1-1s.45-1 1-1h1v-15zm8.89 0h-6.89v6.053h6.89a3.03 3.03 0 0 0 3.03-3.027 3.03 3.03 0 0 0-3.03-3.026zm-6.89 15h7.53a3.479 3.479 0 0 0 3.47-3.472v-.003a3.479 3.479 0 0 0-3.47-3.472h-7.53v6.947z" fill="url(#b)"/></g><defs><linearGradient id="b" x1="52.002" y1="50.002" x2="13.002" y2="17.002" gradientUnits="userSpaceOnUse"><stop stop-color="#0054FA"/><stop offset="1" stop-color="#0099FA"/></linearGradient><clipPath id="a"><path fill="#fff" d="M0 0h80v80H0z"/></clipPath></defs><script/></svg>